# Blender v2.76 (sub 0) OBJ File: ''
# www.blender.org
o Cylinder.002
v 0.300115 0.240851 0.492246
v 0.300115 0.337385 1.020450
v 0.522293 0.256519 1.020450
v 0.460243 0.182570 0.492246
v 0.640512 0.051759 1.020450
v 0.545444 0.034997 0.492246
v 0.599455 -0.181085 1.020450
v 0.515854 -0.132819 0.492246
v 0.418334 -0.333064 1.020450
v 0.385317 -0.242352 0.492246
v 0.181897 -0.333064 1.020450
v 0.214913 -0.242351 0.492246
v 0.000776 -0.181085 1.020450
v 0.084377 -0.132819 0.492246
v -0.040280 0.051759 1.020450
v 0.054787 0.034997 0.492246
v 0.077937 0.256519 1.020450
v 0.139989 0.182570 0.492246
v 0.300115 0.337385 -0.024391
v 0.522293 0.256519 -0.024391
v 0.640512 0.051759 -0.024391
v 0.599455 -0.181085 -0.024391
v -0.040280 0.051759 -0.024391
v 0.077937 0.256519 -0.024391
v 0.000776 -0.181085 -0.024391
v 0.181897 -0.333064 -0.024391
v 0.418334 -0.333064 -0.024391
v 0.330835 0.231562 3.852921
v 0.333940 -0.014367 4.529070
v 0.342454 -0.017466 4.529070
v 0.494545 0.171976 3.852922
v 0.346985 -0.025312 4.529070
v 0.576667 0.026608 3.796632
v 0.345411 -0.034235 4.529070
v 0.551400 -0.150469 3.852921
v 0.338470 -0.040059 4.529070
v 0.417943 -0.262453 3.852921
v 0.329410 -0.040059 4.529070
v 0.238741 -0.256945 3.796632
v 0.322469 -0.034235 4.529070
v 0.110270 -0.150469 3.852921
v 0.320896 -0.025312 4.529070
v 0.080017 0.021100 3.852921
v 0.325426 -0.017466 4.529070
v 0.162139 0.177484 3.796632
v 0.312067 0.840844 0.941088
v 0.883435 0.632883 0.941088
v 1.187453 0.106309 0.768575
v 1.081869 -0.492490 0.768575
v -0.716397 0.139292 0.722946
v -0.450148 0.089462 1.257583
v -0.189447 0.555153 1.201293
v -0.364638 0.762700 0.666656
v 0.314867 0.731386 1.257583
v 0.310810 1.001220 0.722946
v -0.592500 -0.563359 0.722946
v -0.357876 -0.433838 1.257583
v -0.050921 -1.016474 0.666656
v 0.044194 -0.769891 1.201293
v 0.667555 -1.021982 0.722946
v 0.580554 -0.775400 1.257583
v 1.214119 -0.563359 0.722946
v 0.987610 -0.433838 1.257583
v 1.333031 0.144799 0.666656
v 1.079882 0.089462 1.257583
v 0.981271 0.757192 0.722946
v 0.814195 0.549646 1.257583
v -0.101449 0.048212 3.165361
v 0.172031 -0.003153 3.897447
v 0.221997 0.097533 3.841156
v 0.042168 0.311108 3.109070
v 0.330258 0.129615 3.897447
v 0.326436 0.407250 3.165361
v -0.049840 -0.244478 3.165361
v 0.191115 -0.111386 3.897447
v 0.172848 -0.430010 3.109071
v 0.270321 -0.176523 3.841156
v 0.475039 -0.435518 3.165361
v 0.385210 -0.182030 3.897447
v 0.702711 -0.244478 3.165361
v 0.469400 -0.111386 3.897447
v 0.749335 0.053721 3.109070
v 0.488484 -0.003153 3.897447
v 0.605718 0.305600 3.165361
v 0.433533 0.092026 3.897447
v 0.321602 0.602279 2.409660
v 0.326262 0.285851 3.212070
v 0.532363 0.210836 3.212070
v 0.729148 0.453943 2.409660
v 0.642027 0.020892 3.212070
v 0.941014 0.083854 2.353369
v 0.603940 -0.195103 3.212070
v 0.870687 -0.348766 2.409660
v 0.435926 -0.336085 3.212070
v 0.538452 -0.627545 2.409660
v 0.211612 -0.330577 3.155780
v 0.099764 -0.622037 2.353370
v 0.048583 -0.195103 3.212070
v -0.227485 -0.348766 2.409660
v 0.010497 0.020892 3.212070
v -0.302796 0.078347 2.409660
v -0.090931 0.459452 2.353370
v 0.115176 0.216344 3.155779
v -0.451318 0.099711 1.730677
v -0.167713 0.047420 2.455937
v -0.002674 0.347419 2.399647
v -0.189381 0.567544 1.674388
v 0.321853 0.458215 2.455937
v 0.317258 0.744622 1.730677
v -0.358617 -0.426025 1.730678
v -0.108664 -0.287462 2.455937
v 0.045348 -0.763667 1.674388
v 0.146843 -0.500535 2.399647
v 0.584180 -0.769176 1.730678
v 0.491878 -0.506042 2.455937
v 0.993131 -0.426025 1.730677
v 0.752371 -0.287463 2.455937
v 1.080847 0.105219 1.674388
v 0.811420 0.047420 2.455937
v 0.818909 0.562036 1.730678
v 0.641395 0.341911 2.455937
v 0.313891 0.892136 1.204646
v 0.317924 0.611856 1.781943
v 0.738583 0.458748 1.781944
v 0.912384 0.674302 1.204647
v 0.962412 0.071066 1.781943
v 1.225850 0.128236 1.148356
v 0.884678 -0.369790 1.781944
v 1.120239 -0.504498 1.204647
v 0.541752 -0.657537 1.781944
v 0.632343 -0.913891 1.204647
v 0.089110 -0.652030 1.725653
v -0.009545 -0.908384 1.148356
v -0.248829 -0.369790 1.781944
v -0.492456 -0.504498 1.204647
v -0.326563 0.071066 1.781943
v -0.603052 0.122728 1.204646
v -0.289587 0.679810 1.148356
v -0.107721 0.464255 1.725653
v 0.616085 -0.883329 0.941088
v 0.003064 -0.877820 0.884799
v -0.457733 -0.492490 0.768575
v -0.563317 0.106309 0.768575
v -0.264286 0.638391 0.712285
vn 0.337100 0.926100 -0.169300
vn 0.853500 0.492800 -0.169300
vn 0.970600 -0.171100 -0.169300
vn 0.633500 -0.755000 -0.169300
vn -0.000000 -0.985600 -0.169300
vn -0.633500 -0.755000 -0.169300
vn -0.970600 -0.171100 -0.169300
vn -0.000000 0.000000 1.000000
vn -0.337100 0.926100 -0.169300
vn -0.853500 0.492800 -0.169300
vn -0.000000 0.000000 -1.000000
vn -0.853000 0.492500 0.172900
vn -0.336900 0.925500 0.172900
vn -0.970000 -0.171000 0.172900
vn -0.633100 -0.754500 0.172900
vn -0.000000 -0.984900 0.172900
vn 0.633100 -0.754500 0.172900
vn 0.970000 -0.171000 0.172900
vn 0.853000 0.492500 0.172900
vn 0.336900 0.925500 0.172900
vn 0.323800 0.889600 0.322100
vn 0.873000 0.382700 0.302200
vn 0.953600 -0.047700 0.297100
vn 0.610900 -0.728000 0.311200
vn -0.116400 -0.947900 0.296500
vn -0.531300 -0.791700 0.301500
vn -0.932700 -0.164500 0.321000
vn -0.380900 0.868600 0.316900
vn -0.789800 0.525300 0.316600
vn 0.041500 -0.002400 -0.999100
vn -0.766700 0.475700 0.431000
vn -0.335600 0.837900 0.430400
vn -0.889800 -0.156900 0.428500
vn -0.551100 -0.719300 0.423000
vn -0.045500 -0.907000 0.418700
vn 0.584400 -0.696500 0.416300
vn 0.907900 -0.137600 0.396000
vn 0.802300 0.440800 0.402500
vn 0.309300 0.849900 0.426600
vn -0.783800 0.521700 0.337000
vn -0.378300 0.862300 0.336700
vn -0.927900 -0.163600 0.335100
vn -0.527700 -0.783200 0.328800
vn -0.112700 -0.938800 0.325600
vn 0.607800 -0.724400 0.325400
vn 0.943700 -0.109300 0.312200
vn 0.844400 0.431700 0.317300
vn 0.322400 0.885700 0.334200
vn 0.320900 0.881700 0.345800
vn 0.832500 0.444700 0.330400
vn 0.936600 -0.128300 0.326000
vn 0.604700 -0.720700 0.339000
vn -0.073500 -0.937200 0.340900
vn -0.553400 -0.758500 0.344100
vn -0.923000 -0.162700 0.348700
vn -0.357900 0.866100 0.349000
vn -0.790600 0.502400 0.350000
vn -0.795700 0.493900 0.350700
vn -0.348600 0.869600 0.349700
vn -0.922800 -0.162700 0.349100
vn -0.566400 -0.748700 0.344600
vn -0.055100 -0.938500 0.340800
vn 0.604800 -0.720800 0.338500
vn 0.935900 -0.137500 0.324300
vn 0.829000 0.452000 0.329300
vn 0.320900 0.881600 0.346100
vn 0.311400 0.855700 0.413300
vn 0.807700 0.441200 0.391000
vn 0.912900 -0.135700 0.384900
vn 0.588100 -0.700900 0.403500
vn -0.050900 -0.912600 0.405600
vn -0.551300 -0.726800 0.409600
vn -0.896000 -0.158000 0.415000
vn -0.340400 0.842900 0.416800
vn -0.770800 0.481200 0.417400
vn 0.182400 -0.471500 -0.862800
vn 0.434600 -0.277800 -0.856700
vn 0.451100 0.079500 -0.888900
vn 0.033800 0.576500 -0.816400
vn 0.332600 0.458600 -0.824000
vn -0.304900 0.363300 -0.880400
vn -0.650200 -0.048500 -0.758200
vn -0.618900 -0.173400 -0.766100
vn -0.143900 -0.395400 -0.907200
vn -0.129500 -0.355900 -0.925500
vn -0.535900 -0.202800 -0.819600
vn -0.587300 0.008200 -0.809300
vn -0.269100 0.320700 -0.908100
vn 0.198400 0.417000 -0.887000
vn 0.115600 0.449500 -0.885800
vn 0.398700 0.070300 -0.914400
vn 0.303300 -0.290100 -0.907700
vn 0.229600 -0.347700 -0.909100
vn 0.213700 -0.273300 -0.937900
vn 0.232200 -0.258600 -0.937700
vn 0.335600 0.059200 -0.940100
vn 0.120800 0.359000 -0.925500
vn 0.137900 0.352300 -0.925700
vn -0.226300 0.269700 -0.936000
vn -0.512900 0.023500 -0.858100
vn -0.461800 -0.192000 -0.865900
vn -0.110700 -0.304100 -0.946200
vn -0.130200 -0.357700 -0.924700
vn -0.503100 -0.233900 -0.832000
vn -0.569500 0.049400 -0.820500
vn -0.266000 0.317000 -0.910400
vn 0.107200 0.414400 -0.903800
vn 0.183900 0.384400 -0.904700
vn 0.392700 0.069200 -0.917000
vn 0.223200 -0.321800 -0.920100
vn 0.279900 -0.276500 -0.919300
vn 0.243400 -0.240100 -0.939800
vn 0.193800 -0.280100 -0.940200
vn 0.338100 0.059600 -0.939200
vn 0.157200 0.329700 -0.930900
vn 0.092200 0.355000 -0.930300
vn -0.228200 0.272000 -0.934800
vn -0.498900 0.043200 -0.865600
vn -0.442200 -0.205700 -0.873000
vn -0.113300 -0.311400 -0.943500
vn -0.281700 -0.773800 -0.567300
vn -0.696600 -0.267300 -0.665800
vn -0.464800 0.041800 -0.884400
vn -0.511600 0.462700 -0.723900
vn 0.052300 0.842700 -0.535900
vn 0.463500 0.501900 -0.730300
vn 0.295600 0.052100 -0.953900
vn 0.366300 -0.558700 -0.744100
vn 0.211800 -0.212200 -0.954000
s 1
f 1//1 2//1 3//1 4//1
f 4//2 3//2 5//2 6//2
f 6//3 5//3 7//3 8//3
f 8//4 7//4 9//4 10//4
f 10//5 9//5 11//5 12//5
f 12//6 11//6 13//6 14//6
f 14//7 13//7 15//7 16//7
f 3//8 2//8 17//8 15//8
f 18//9 17//9 2//9 1//9
f 16//10 15//10 17//10 18//10
f 19//11 20//11 21//11 22//11
f 23//12 16//12 18//12 24//12
f 24//13 18//13 1//13 19//13
f 25//14 14//14 16//14 23//14
f 26//15 12//15 14//15 25//15
f 27//16 10//16 12//16 26//16
f 22//17 8//17 10//17 27//17
f 21//18 6//18 8//18 22//18
f 20//19 4//19 6//19 21//19
f 19//20 1//20 4//20 20//20
f 28//21 29//21 30//21 31//21
f 31//22 30//22 32//22 33//22
f 33//23 32//23 34//23 35//23
f 35//24 34//24 36//24 37//24
f 37//25 36//25 38//25 39//25
f 39//26 38//26 40//26 41//26
f 41//27 40//27 42//27 43//27
f 30//8 29//8 44//8 42//8
f 45//28 44//28 29//28 28//28
f 43//29 42//29 44//29 45//29
f 46//30 47//30 48//30 49//30
f 50//31 51//31 52//31 53//31
f 53//32 52//32 54//32 55//32
f 56//33 57//33 51//33 50//33
f 58//34 59//34 57//34 56//34
f 60//35 61//35 59//35 58//35
f 62//36 63//36 61//36 60//36
f 64//37 65//37 63//37 62//37
f 66//38 67//38 65//38 64//38
f 55//39 54//39 67//39 66//39
f 68//40 69//40 70//40 71//40
f 71//41 70//41 72//41 73//41
f 74//42 75//42 69//42 68//42
f 76//43 77//43 75//43 74//43
f 78//44 79//44 77//44 76//44
f 80//45 81//45 79//45 78//45
f 82//46 83//46 81//46 80//46
f 84//47 85//47 83//47 82//47
f 73//48 72//48 85//48 84//48
f 86//49 87//49 88//49 89//49
f 89//50 88//50 90//50 91//50
f 91//51 90//51 92//51 93//51
f 93//52 92//52 94//52 95//52
f 95//53 94//53 96//53 97//53
f 97//54 96//54 98//54 99//54
f 99//55 98//55 100//55 101//55
f 102//56 103//56 87//56 86//56
f 101//57 100//57 103//57 102//57
f 104//58 105//58 106//58 107//58
f 107//59 106//59 108//59 109//59
f 110//60 111//60 105//60 104//60
f 112//61 113//61 111//61 110//61
f 114//62 115//62 113//62 112//62
f 116//63 117//63 115//63 114//63
f 118//64 119//64 117//64 116//64
f 120//65 121//65 119//65 118//65
f 109//66 108//66 121//66 120//66
f 122//67 123//67 124//67 125//67
f 125//68 124//68 126//68 127//68
f 127//69 126//69 128//69 129//69
f 129//70 128//70 130//70 131//70
f 131//71 130//71 132//71 133//71
f 133//72 132//72 134//72 135//72
f 135//73 134//73 136//73 137//73
f 138//74 139//74 123//74 122//74
f 137//75 136//75 139//75 138//75
f 69//76 43//76 45//76 70//76
f 70//77 45//77 28//77 72//77
f 75//78 41//78 43//78 69//78
f 77//79 39//79 41//79 75//79
f 79//80 37//80 39//80 77//80
f 81//81 35//81 37//81 79//81
f 83//82 33//82 35//82 81//82
f 85//83 31//83 33//83 83//83
f 72//84 28//84 31//84 85//84
f 87//85 73//85 84//85 88//85
f 88//86 84//86 82//86 90//86
f 90//87 82//87 80//87 92//87
f 92//88 80//88 78//88 94//88
f 94//89 78//89 76//89 96//89
f 96//90 76//90 74//90 98//90
f 98//91 74//91 68//91 100//91
f 103//92 71//92 73//92 87//92
f 100//93 68//93 71//93 103//93
f 105//94 101//94 102//94 106//94
f 106//95 102//95 86//95 108//95
f 111//96 99//96 101//96 105//96
f 113//97 97//97 99//97 111//97
f 115//98 95//98 97//98 113//98
f 117//99 93//99 95//99 115//99
f 119//100 91//100 93//100 117//100
f 121//101 89//101 91//101 119//101
f 108//102 86//102 89//102 121//102
f 123//103 109//103 120//103 124//103
f 124//104 120//104 118//104 126//104
f 126//105 118//105 116//105 128//105
f 128//106 116//106 114//106 130//106
f 130//107 114//107 112//107 132//107
f 132//108 112//108 110//108 134//108
f 134//109 110//109 104//109 136//109
f 139//110 107//110 109//110 123//110
f 136//111 104//111 107//111 139//111
f 51//112 137//112 138//112 52//112
f 52//113 138//113 122//113 54//113
f 57//114 135//114 137//114 51//114
f 59//115 133//115 135//115 57//115
f 61//116 131//116 133//116 59//116
f 63//117 129//117 131//117 61//117
f 65//118 127//118 129//118 63//118
f 67//119 125//119 127//119 65//119
f 54//120 122//120 125//120 67//120
f 46//121 55//121 66//121 47//121
f 47//122 66//122 64//122 48//122
f 48//123 64//123 62//123 49//123
f 49//124 62//124 60//124 140//124
f 140//125 60//125 58//125 141//125
f 141//126 58//126 56//126 142//126
f 142//127 56//127 50//127 143//127
f 144//128 53//128 55//128 46//128
f 143//129 50//129 53//129 144//129
